<?xml version="1.0" encoding="UTF-8"?>
<svg id="_Слой_2" data-name="Слой 2" xmlns="http://www.w3.org/2000/svg" xmlns:xlink="http://www.w3.org/1999/xlink" viewBox="0 0 1920 1713.97">
  <defs>
    <style>
      .cls-1 {
        stroke: #0b2359;
        stroke-linecap: round;
        stroke-linejoin: round;
        stroke-width: 3px;
      }

      .cls-1, .cls-2 {
        fill: none;
      }

      .cls-2 {
        stroke-width: 0px;
      }

      .cls-3 {
        clip-path: url(#clippath);
      }
    </style>
    <clipPath id="clippath">
      <rect class="cls-2" width="1920" height="1713.97"/>
    </clipPath>
  </defs>
  <g id="_Слой_4" data-name="Слой 4">
    <g class="cls-3">
      <g>
        <path class="cls-1" d="m-539.97,1977.44c397.36-450.13,708.56-530.88,918.59-522.2,329.51,13.63,495.84,240.17,887.74,239.74,287.79-.32,522.24-124.42,674.11-227.87"/>
        <path class="cls-1" d="m1954.59,1493.93c-126.93,66.29-314.76,160.47-541.73,182.62-38.81,3.79-78.86,5.33-119.97,5.13-385.86-1.21-560.03-204.81-890.74-215.27-76.49-2.32-165.21,6.84-266.46,36.17-129.42,37.5-274.17,107.49-430.69,235.65-43.38,35.52-89.64,73.85-139.09,118.86-30.33,27.72-60.82,58.24-90.94,90.81"/>
        <path class="cls-1" d="m1968.71,1520.75c-123.65,43.9-308.52,128.19-529.21,144.65-38.83,2.89-78.92,3.43-120.08,2.97-379.83-2.86-561.84-183.5-893.74-190.81-77.37-1.51-166.21,8.17-267.46,33.89-134.84,34.25-281.3,96.49-434.13,213.75-42.28,32.44-88.99,65.77-140.76,107.23-31.67,25.56-63.14,54.73-93.4,85.91"/>
        <path class="cls-1" d="m1982.84,1547.57c-120.38,21.5-302.36,95.73-516.69,106.68-38.86,1.99-78.99,1.43-120.19.82-373.78-5.5-563.65-162.2-896.74-166.35-78.25-.7-167.3,9.34-268.46,31.6-140.37,30.88-288.35,85.45-437.57,191.85-41.15,29.35-88.44,57.54-142.44,95.6-33.06,23.31-65.47,51.21-95.86,81"/>
        <path class="cls-1" d="m1996.96,1574.4c-117.1-.89-296.27,63.06-504.17,68.71-38.91,1.06-79.05-.5-120.3-1.33-367.74-7.4-565.46-141.63-899.74-141.89-79.13-.06-168.46,10.37-269.46,29.32-146,27.39-295.3,74.37-441.01,169.96-40.01,26.25-87.81,49.42-144.11,83.98-34.4,21.12-67.79,47.7-98.32,76.1"/>
        <path class="cls-1" d="m2011.08,1601.22c-113.83-23.28-290.24,30.18-491.65,30.74-38.98.11-79.12-2.43-120.42-3.49-361.7-9.26-567.28-120.44-902.74-117.43-80.01.72-169.68,11.25-270.46,27.04-151.71,23.77-302.16,63.25-444.45,148.06-38.84,23.14-87.17,41.3-145.78,72.35-35.74,18.93-70.11,44.19-100.78,71.19"/>
        <path class="cls-1" d="m2025.21,1628.04c-110.56-45.68-284.27-2.91-479.13-7.23-39.06-.87-79.18-4.35-120.53-5.64-355.66-11.08-569.1-99.23-905.74-92.97-80.89,1.5-170.95,12-271.47,24.76-157.49,19.99-308.88,52.12-447.9,126.16-37.63,20.04-86.51,33.19-147.46,60.72-37.07,16.75-72.44,40.68-103.24,66.29"/>
        <path class="cls-1" d="m2039.33,1654.86c-107.28-68.07-278.34-36.21-466.6-45.2-39.15-1.87-79.25-6.27-120.64-7.79-349.61-12.86-570.92-78-908.74-68.51-81.77,2.3-172.24,12.62-272.47,22.47-163.32,16.05-315.45,40.97-451.34,104.27-36.38,16.95-85.86,25.08-149.13,49.09-38.4,14.57-74.76,37.17-105.7,61.38"/>
        <path class="cls-1" d="m2053.45,1681.68c-104.01-90.46-272.44-69.73-454.08-83.17-39.25-2.9-79.31-8.19-120.75-9.95-343.56-14.61-572.74-56.74-911.75-44.05-82.65,3.09-173.56,13.13-273.47,20.19-169.18,11.95-321.84,29.85-454.78,82.37-35.09,13.86-85.19,16.99-150.81,37.47-39.72,12.4-77.09,33.66-108.16,56.48"/>
        <path class="cls-1" d="m2067.58,1708.51c-100.73-112.86-266.56-103.47-441.56-121.14-39.36-3.97-79.38-10.1-120.86-12.1-337.52-16.31-574.56-35.45-914.75-19.58-83.53,3.9-174.89,13.54-274.47,17.91-175.05,7.69-328.04,18.78-458.22,60.47-33.75,10.81-84.53,8.9-152.48,25.84-41.05,10.23-79.41,30.15-110.62,51.58"/>
        <path class="cls-1" d="m2081.7,1735.33c-97.46-135.25-260.68-137.42-429.04-159.11-39.47-5.08-79.44-12-120.97-14.25-331.48-17.97-576.38-14.15-917.75,4.88-84.42,4.7-176.23,13.84-275.47,15.62-180.93,3.25-334.04,7.83-461.67,38.57-32.36,7.79-83.86.82-154.16,14.21-42.37,8.07-81.73,26.64-113.08,46.67"/>
        <path class="cls-1" d="m2095.82,1762.15c-94.19-157.65-254.79-171.59-416.52-197.08-39.57-6.24-79.51-13.9-121.09-16.41-325.43-19.6-578.19,7.18-920.75,29.34-85.3,5.52-177.55,14.07-276.47,13.34-186.81-1.37-339.84-2.94-465.11,16.68-30.91,4.84-83.19-7.25-155.83,2.58-43.69,5.91-84.06,23.13-115.54,41.77"/>
        <path class="cls-1" d="m2109.95,1788.97c-90.91-180.04-248.87-205.96-404-235.05-39.67-7.44-79.58-15.8-121.2-18.56-319.39-21.18-580.01,28.52-923.75,53.8-86.18,6.34-178.87,14.21-277.47,11.06-192.66-6.16-345.47-13.43-468.55-5.22-29.43,1.96-82.52-15.31-157.51-9.04-45.01,3.76-86.38,19.62-117.99,36.86"/>
        <path class="cls-1" d="m2124.07,1815.79c-87.64-202.43-242.91-240.53-391.47-273.02-39.76-8.69-79.64-17.69-121.31-20.71-313.36-22.73-581.82,49.89-926.75,78.26-87.06,7.16-180.17,14.29-278.48,8.78-198.48-11.12-351-23.57-471.99-27.12-27.92-.82-81.86-23.37-159.18-20.67-46.34,1.61-88.7,16.11-120.45,31.96"/>
        <path class="cls-1" d="m2138.19,1842.62c-84.36-224.83-236.89-275.29-378.95-310.99-39.83-10.01-79.71-19.57-121.42-22.87-307.32-24.24-583.63,71.28-929.75,102.72-87.94,7.99-181.45,14.3-279.48,6.49-204.26-16.26-356.55-33.26-475.43-49.01-26.42-3.5-81.2-31.42-160.85-32.3-47.66-.53-91.03,12.59-122.91,27.05"/>
        <path class="cls-1" d="m2152.31,1869.44c-81.09-247.22-230.78-310.23-366.43-348.96-39.87-11.39-79.78-21.45-121.53-25.02-301.3-25.72-585.44,92.68-932.75,127.18-88.82,8.82-182.7,14.25-280.48,4.21-209.99-21.57-362.27-42.47-478.88-70.91-24.95-6.09-80.54-39.46-162.53-43.93-48.99-2.67-93.35,9.08-125.37,22.15"/>
        <path class="cls-1" d="m2166.44,1896.26c-77.81-269.61-224.57-345.32-353.91-386.93-39.88-12.83-79.84-23.33-121.65-27.17-295.27-27.15-587.18,114.74-935.76,151.65-89.68,9.83-183.93,14.16-281.48,1.93-215.67-27.04-368.31-51.23-482.32-92.81-23.55-8.59-79.89-47.5-164.2-55.56-50.32-4.81-95.68,5.57-127.83,17.24"/>
        <path class="cls-1" d="m2180.56,1923.08c-74.54-292.01-218.25-380.56-341.39-424.9-39.85-14.35-79.91-25.19-121.76-29.32-289.26-28.55-588.99,136.05-938.76,176.11-90.56,10.64-185.12,14.02-282.48-.35-221.27-32.67-374.81-59.64-485.76-114.7-22.25-11.04-79.25-55.39-165.88-67.18-51.66-6.86-98,2.06-130.29,12.34"/>
        <path class="cls-1" d="m2194.68,1949.9c-71.27-314.4-211.78-415.93-328.87-462.87-39.77-15.95-79.98-27.05-121.87-31.48-283.25-29.91-590.8,157.35-941.76,200.57-91.44,11.45-186.28,13.85-283.48-2.64-226.81-38.46-381.83-67.86-489.2-136.6-21.05-13.48-78.61-63.47-167.55-78.81-52.99-9.02-100.32-1.45-132.75,7.44"/>
        <path class="cls-1" d="m2208.81,1976.73c-67.99-336.8-205.14-451.39-316.35-500.84-39.62-17.62-80.06-28.85-121.98-33.63-277.29-30.88-592.6,178.65-944.76,225.03-92.32,12.26-187.4,13.64-284.48-4.92-232.27-44.4-389.38-76.07-492.65-158.5-19.96-15.93-77.96-71.55-169.23-90.44-54.33-11.18-102.65-4.96-135.21,2.53"/>
        <path class="cls-1" d="m2222.93,2003.55c-64.72-359.19-198.32-486.93-303.82-538.81-361.25-177.66-833.69,317.33-1355.34,206.51-237.65-50.49-397.35-84.41-496.09-180.4-18.96-18.43-77.31-79.63-170.9-102.07-55.66-13.34-104.97-8.47-137.67-2.37"/>
      </g>
    </g>
  </g>
</svg>